HIERARCHY
ROOT Hips
{
 OFFSET 0.000000 0.000000 0.000000
 CHANNELS 6 Xposition Yposition Zposition Yrotation Xrotation Zrotation
 JOINT Chest
 {
  OFFSET 0.000000 9.585900 0.002600
  CHANNELS 3 Yrotation Xrotation Zrotation
  JOINT Chest2
  {
   OFFSET 0.000000 9.601200 -0.005300
   CHANNELS 3 Yrotation Xrotation Zrotation
   JOINT Chest3
   {
    OFFSET 0.000000 9.561800 0.000000
    CHANNELS 3 Yrotation Xrotation Zrotation
    JOINT Chest4
    {
     OFFSET 0.000000 9.552100 0.000000
     CHANNELS 3 Yrotation Xrotation Zrotation
     JOINT Neck
     {
      OFFSET 0.000000 14.453000 0.000000
      CHANNELS 3 Yrotation Xrotation Zrotation
      JOINT Head
      {
       OFFSET 0.000000 8.936500 -0.011300
       CHANNELS 3 Yrotation Xrotation Zrotation
       End Site
       {
        OFFSET 0.000000 17.073600 -0.006000
       }
      }
     }
     JOINT RightCollar
     {
      OFFSET -2.921100 9.558500 0.000000
      CHANNELS 3 Yrotation Xrotation Zrotation
      JOINT RightShoulder
      {
       OFFSET -13.519700 0.000000 0.000000
       CHANNELS 3 Yrotation Xrotation Zrotation
       JOINT RightElbow
       {
        OFFSET 0.000000 -29.696600 0.000000
        CHANNELS 3 Yrotation Xrotation Zrotation
        JOINT RightWrist
        {
         OFFSET 0.000000 -24.004700 0.000000
         CHANNELS 3 Yrotation Xrotation Zrotation
         End Site
         {
          OFFSET 0.000000 -17.728500 0.000000
         }
        }
       }
      }
     }
     JOINT LeftCollar
     {
      OFFSET 2.921100 9.558500 0.000000
      CHANNELS 3 Yrotation Xrotation Zrotation
      JOINT LeftShoulder
      {
       OFFSET 13.519700 0.000000 0.000000
       CHANNELS 3 Yrotation Xrotation Zrotation
       JOINT LeftElbow
       {
        OFFSET 0.000000 -29.696600 0.000000
        CHANNELS 3 Yrotation Xrotation Zrotation
        JOINT LeftWrist
        {
         OFFSET 0.000000 -24.004700 0.000000
         CHANNELS 3 Yrotation Xrotation Zrotation
         End Site
         {
          OFFSET 0.000000 -17.728500 0.000000
         }
        }
       }
      }
     }
    }
   }
  }
 }
 JOINT RightHip
 {
  OFFSET -7.771700 -0.012900 -0.001300
  CHANNELS 3 Yrotation Xrotation Zrotation
  JOINT RightKnee
  {
   OFFSET 0.000000 -40.869800 0.001200
   CHANNELS 3 Yrotation Xrotation Zrotation
   JOINT RightAnkle
   {
    OFFSET 0.000000 -39.717900 0.002100
    CHANNELS 3 Yrotation Xrotation Zrotation
    JOINT RightToe
    {
     OFFSET 0.000000 -4.965400 11.033500
     CHANNELS 3 Yrotation Xrotation Zrotation
     End Site
     {
      OFFSET 0.000000 -1.423100 5.872300
     }
    }
   }
  }
 }
 JOINT LeftHip
 {
  OFFSET 7.771700 -0.012900 -0.001300
  CHANNELS 3 Yrotation Xrotation Zrotation
  JOINT LeftKnee
  {
   OFFSET 0.000000 -40.869800 0.001200
   CHANNELS 3 Yrotation Xrotation Zrotation
   JOINT LeftAnkle
   {
    OFFSET 0.000000 -39.717900 0.002100
    CHANNELS 3 Yrotation Xrotation Zrotation
    JOINT LeftToe
    {
     OFFSET 0.000000 -4.965400 11.033500
     CHANNELS 3 Yrotation Xrotation Zrotation
     End Site
     {
      OFFSET 0.000000 -1.423100 5.872300
     }
    }
   }
  }
 }
}
MOTION
Frames: 8
Frame Time: 0.008333
0.000000 85.388000 0.000000 0.000000 -5.767877 0.000000 0.000000 11.653817 0.000000 0.000000 -5.885947 0.000000 0.000000 -0.000000 0.000000 0.000000 -0.000000 0.000000 0.000000 12.528835 0.000000 0.000000 0.711642 0.000000 0.000000 -0.000000 0.000000 0.000000 0.000000 -90.000000 0.000000 -2.309062 0.000000 0.000000 2.309062 0.000000 0.000000 -0.000000 0.000000 0.000000 -0.000000 90.000000 0.000000 -2.309062 0.000000 0.000000 2.309062 0.000000 0.000000 8.520406 0.000000 0.000000 1.905762 0.000000 -0.000000 -4.658285 0.000000 0.000000 -0.000000 0.000000 0.000000 8.520406 0.000000 0.000000 1.905762 0.000000 -0.000000 -4.658285 0.000000 0.000000 -0.000000 0.000000
-37.360590 52.865680 -3.463395 -177.003418 -17.782504 -2.355076 0.104429 16.914738 0.349420 0.008109 1.754768 0.039993 0.017667 2.935789 0.048360 0.112402 14.902529 0.374370 -5.597511 16.842473 1.738101 -6.418838 -7.837252 3.196323 1.603106 -0.604557 2.904031 0.796457 -10.746000 -6.485432 -109.605252 -75.570430 142.047581 -8.141211 -23.707040 -12.863588 -6.337218 -0.921025 0.105811 2.594129 -8.793167 10.067999 80.256386 -62.061214 -119.008651 2.721202 -15.706076 9.703693 1.263796 -60.675797 10.872384 -178.481055 86.544406 179.364301 -12.457872 -22.030451 13.350030 0.000528 0.004798 -0.008882 4.999721 -59.301172 -3.896539 121.285174 77.999828 119.316738 -6.846974 -20.104611 -0.439303 0.009275 0.047466 -0.000390
-37.360115 52.864794 -3.465251 -177.000125 -17.782034 -2.357343 0.105666 16.921607 0.337757 0.013056 1.762148 0.021656 0.014891 2.928862 0.061988 0.111160 14.907290 0.362081 -5.659365 16.818849 1.772544 -6.498908 -7.854786 3.249856 1.603473 -0.617981 2.926627 0.787075 -10.746750 -6.511253 -109.775528 -75.559740 142.221411 -8.182138 -23.701382 -12.870849 -6.356514 -0.944083 0.099977 2.573844 -8.804309 10.099947 80.238352 -62.064940 -118.975086 2.734203 -15.744520 9.684001 1.268279 -60.675489 10.852580 -178.779061 86.539533 179.054278 -12.297652 -22.047279 13.322257 0.006400 -0.007714 -0.012150 4.995517 -59.301761 -3.897750 121.298900 78.001107 119.335939 -6.842296 -20.107383 -0.443003 0.012978 0.048705 -0.000263
-37.359329 52.863736 -3.466866 -176.997265 -17.779475 -2.361550 0.112673 16.930242 0.312550 0.007723 1.754090 0.044352 0.015959 2.930680 0.050970 0.114266 14.911991 0.350628 -5.726083 16.808398 1.806022 -6.579878 -7.856211 3.301579 1.593070 -0.634749 2.925560 0.773821 -10.760521 -6.553081 -109.810904 -75.515029 142.262333 -8.174888 -23.722694 -12.883705 -6.376499 -0.967331 0.103266 2.544230 -8.815253 10.123771 80.237486 -62.061579 -118.979094 2.725633 -15.781673 9.704042 1.269558 -60.677034 10.828042 -179.134523 86.534518 178.676842 -12.084238 -22.065417 13.290148 0.015048 -0.021785 -0.015473 4.982780 -59.305794 -3.893389 121.306897 77.995661 119.344912 -6.831447 -20.110850 -0.445477 0.006429 0.049483 -0.004000
-37.358380 52.862617 -3.468059 -176.996400 -17.775023 -2.366806 0.115191 16.928140 0.302701 0.007704 1.754383 0.051090 0.016015 2.929711 0.045306 0.116103 14.916983 0.332967 -5.793295 16.812259 1.840467 -6.660640 -7.837777 3.351032 1.585734 -0.649133 2.923292 0.761877 -10.771411 -6.552831 -109.897888 -75.508824 142.349005 -8.116629 -23.742210 -12.885795 -6.395477 -0.989137 0.107369 2.509444 -8.828933 10.149483 80.296147 -62.048855 -119.076578 2.702969 -15.779747 9.788033 1.267482 -60.681033 10.821901 -179.259523 86.533223 178.537952 -11.979122 -22.073142 13.279158 0.051488 -0.023371 -0.012122 4.969301 -59.312544 -3.879201 121.324092 77.994196 119.360470 -6.830381 -20.114128 -0.447003 0.005950 0.052260 -0.001987
-37.358978 52.861462 -3.468584 -176.991954 -17.768488 -2.365083 0.110319 16.920425 0.284965 0.009232 1.757672 0.048878 0.015444 2.927899 0.057484 0.104124 14.902691 0.278188 -5.845828 16.851523 1.897488 -6.742271 -7.797445 3.397636 1.580331 -0.646357 2.947903 0.759617 -10.785511 -6.553706 -109.852257 -75.494385 142.307898 -8.088718 -23.734582 -12.885107 -6.401137 -0.987437 0.132681 2.468120 -8.847558 10.176243 80.348022 -62.043835 -119.135142 2.693926 -15.753566 9.860310 1.270636 -60.691501 10.843383 -178.644963 86.534074 179.180837 -12.198392 -22.050238 13.311517 0.012697 -0.011302 0.000243 4.967820 -59.319092 -3.881502 121.326965 77.996119 119.361309 -6.831528 -20.115555 -0.449017 0.007500 0.055294 0.002037
-37.361231 52.860585 -3.468948 -176.986198 -17.764014 -2.355711 0.099856 16.911046 0.259152 0.011272 1.760182 0.046549 0.015405 2.925650 0.055608 0.099287 14.891405 0.266407 -5.914011 16.903380 1.922233 -6.825452 -7.735504 3.441647 1.571764 -0.637782 2.945356 0.760202 -10.808030 -6.555016 -109.784317 -75.483703 142.242251 -8.058311 -23.720487 -12.884823 -6.406232 -0.988614 0.130214 2.423268 -8.869583 10.199841 80.337991 -62.046915 -119.091128 2.685001 -15.789207 9.863560 1.282936 -60.702662 10.882667 -177.545661 86.535755 -179.663876 -12.653872 -22.006198 13.376398 -0.011571 0.012922 0.020250 4.982943 -59.320836 -3.904072 121.311281 77.999059 119.344377 -6.833602 -20.114571 -0.448222 0.010592 0.057157 0.003980
-37.362395 52.860042 -3.468893 -176.982655 -17.759835 -2.354182 0.093382 16.901626 0.245636 0.009768 1.747861 0.027081 0.017448 2.932410 0.068024 0.097586 14.884391 0.252769 -5.984634 16.973027 1.944607 -6.910926 -7.653740 3.483863 1.544521 -0.644208 2.923026 0.773136 -10.816476 -6.531480 -109.783962 -75.488019 142.232916 -8.055559 -23.700109 -12.871918 -6.404324 -0.978657 0.143235 2.377147 -8.906915 10.208260 80.313274 -62.050022 -119.036686 2.672602 -15.864803 9.854458 1.285024 -60.705918 10.865076 -177.559291 86.535921 -179.686716 -12.605589 -22.011124 13.371716 -0.008055 0.007029 0.016988 4.988832 -59.322102 -3.912433 121.290632 78.002330 119.323400 -6.835352 -20.117139 -0.449486 0.005442 0.060984 0.005674
